/* XPM */
static char *e742086d5c1e44efa3a13c48e47be459OwFSrmKIk8uDjhOW[] = {
/* columns rows colors chars-per-pixel */
"64 64 78 1 ",
"  c #98B5D4",
". c #9EB9D6",
"X c #A1BBD7",
"o c #A6BED9",
"O c #A8BFDA",
"+ c #ACC2DB",
"@ c #B2C6DE",
"# c #B5C9DF",
"$ c #B8CADF",
"% c #B7CAE0",
"& c #BCCDE2",
"* c #BFD0E3",
"= c #C0CFE3",
"- c #C4D3E5",
"; c #C9D6E7",
": c #CAD8E7",
"> c #CBD7E8",
", c #CDD9E8",
"< c #D2DDEB",
"1 c #D5E0EC",
"2 c #D7E1ED",
"3 c #D8E1ED",
"4 c #D8E2ED",
"5 c #D9E2ED",
"6 c #D8E2EE",
"7 c #D9E2EE",
"8 c #D9E3EE",
"9 c #DAE3EE",
"0 c #DBE4EE",
"q c #DCE5EF",
"w c #DDE5EF",
"e c #DCE5F0",
"r c #DEE5F0",
"t c #DFE7F0",
"y c #DFE7F1",
"u c #DFE8F1",
"i c #E2E9F1",
"p c #E1E8F2",
"a c #E2E9F2",
"s c #E3EAF3",
"d c #E4EAF3",
"f c #E4EBF3",
"g c #E6EBF3",
"h c #E6EDF3",
"j c #E7ECF4",
"k c #E9EDF4",
"l c #E8EEF4",
"z c #E8EEF5",
"x c #EBEFF6",
"c c #EAF0F5",
"v c #EBF0F6",
"b c #EAF0F7",
"n c #ECF0F6",
"m c #ECF1F6",
"M c #ECF1F7",
"N c #EFF4F7",
"B c #EDF2F8",
"V c #EFF2F8",
"C c #EFF3F8",
"Z c #F0F3F7",
"A c #F0F3F8",
"S c #F0F5F8",
"D c #F1F5F8",
"F c #F3F5F9",
"G c #F4F7FA",
"H c #F4F7FB",
"J c #F5F8FA",
"K c #F7F9FB",
"L c #F6F8FC",
"P c #F6F9FC",
"I c #F8F9FC",
"U c #F9FAFC",
"Y c #F8FBFC",
"T c #FAFBFD",
"R c #F9FCFD",
"E c #FAFCFD",
"W c #FBFCFE",
"Q c #FCFDFE",
/* pixels */
"@OOooooooooOoOoOXOOoooooooooooooooooOoOoXOOoooooooooooooooooooOr",
"O                                                             X<",
"o                                                             X<",
"o                                                             Xr",
"O                                                             X<",
"o                                                             X<",
"O                                                             X<",
"o                          .XOO@@OoX                          o<",
"X                      .+-<4skjAxgga<,%O                      X<",
"o                    +;<gADYYYYYWWIYIFxa,#                    X<",
"o                  O,pAIYYQQWQQYIAFFIWWYFg<#.                 X<",
"o                X=pAYYWQQYGx0,-=&=&-,<gGWIg<O                o<",
"+               +<xYQQQQYAp-#+O.X. ..XO#-4AYGp&X              X<",
"o              +eAYWQQQD0&+X            X+=rIYx-              o<",
"o            .$iIYQWQYp-+.                .@<AWA<o            X<",
"o            &gKYYQYGp%o     o#-;<<<,;&%X.  O-DWF<o           Xr",
"+           #iPLbDEPe#.   O&,pkMDGGPGDMjp<-O.X-VWF,X           <",
"o          +4DYesPGe#   O-4xGEQYQQQQQQQYYLMp-+X-AYk=.         .r",
"o         .<DPe4VEi%  X%4kKIPKPQQQQQQQQQYWYQA4&O>GYd@.        .4",
"o         -MYj>sYV-X o-jGYZpwkYQQQQQQQQQQQQQWYg-O<LI4+        .4",
"X        oePD><VYeo O>kPMp;,pDQQQQQQQQQQQQQQQQWx;$gYA-X       .4",
"o        -cY0&eYV&.o,VDi-%;lPQQQQQQQQQQQQQQQQQQWA,;xL0+       .4",
"+       +0Pc&-VE<++>kVe%@,xYQQYQYGAMxMAYYQQQQQQQIA;pGD-.      .<",
"X       -VE2+2KN-X-bNe@@<AQQQQYMp<-&&=-<<gGWQQQQWWx<AY4+      X4",
"+      .4KS-+jYe+%iA4@+<GQQQYA0=+      .O#>jDYQQQQYpgYx%      .<",
"X      +hEw+%jP>o<Ds%X-MWWQYk-+           .+,xYQQQYDgGL>X     X<",
"+      *NE,o-cM&&bA-X%iYQWYg&.              .=pPQQQQAYY4O     X7",
"X      ,GD*.>Di%eD<+X<PQQYg=.                 +ePQQQQYYg#     X<",
"+     .0Kc% <A<-jj& @iQQWM-.     .+++++o       OpGQQQQWZ%     X<",
"X     XiYi@ <G,<V<O -DQEG<X    X#-2ppi4>&+      #xYQQQWZ=.    .e",
"+     XhY4+ <P,iV- O2YEYg@   .+<VPSZjjMMA<%.    X-DQQQWG-X    .<",
"+     +cQ4O eP4ke@ +uEQK,.   +0LGh>#o.+&4xA-X    OaYWWWG,X    .r",
"O     +VE,+ <DjV,+ +iEQM-   O<YG2o       &cD&.   .-NQQQY,o    .<",
"O     +kE<o >NVN>. %jEQj%   %DEbo        .%Nuo    +bYQQY,X    .4",
"O     OjYe+ -bPP-  +iEQi+  X>YEc    ..     <P%.   .ePQQY>.    .e",
"O     ojYj@ %cRP-  +eEQi+  X,YEV+  o&%.    %P2.   .2PQQD-.    X<",
"O     .ePj@ +iEP-  X,IWk%  .-PEEi+O&GG-    #H4.    <GEED&     .2",
"O      <LA%..2PR,.  &xYx%   %VEQYx>,EYe    *L,.   .>KQEk%     .e",
"o      -DY>X -VE<+  +4YG,   X>NEQQQYYG>   .2P&.    <GEEu+     .<",
"o      %VYp+.+jEe+   -xYp+   .;cYYYYG<O   %Vj+     2KEY<O     X4",
"o      XiYb&  ,Lc&.  X<GV-X    +-pir*.   oeP-.    .0WWD%.      4",
"+       >DP-o @jP<X   +4Pc-.           .oeYuo     opYYg@      .e",
"X       @kEi@  <DM&    +2HD4+         X&jYj+      #xWI;X      .<",
"+       .4KY>o +eP2O    o-jDDs>%+o+&-2VHL6o       -AYx#      .X<",
"X        %MEM%  &cD,o     +-cPKKADHPPEPs%.       ogIG,X       .e",
"+         ,KEe+ .-cD<O     .+#>ejkVje>%o        .-SYj%        X<",
"X         +iYK,+ .-kGw@.      .Xooo....         +xYG&X        .<",
"+          &kID-X .-kIM-X                      +gYY<X         X4",
"X           -NEN-O .#4DDi-+ .                 OpIYe+           <",
"+           .,NEA;O  O-eDNb2-+X.. .  . ..    +gWYg%           X4",
"X            X<DYD<#. .+&,pkVjs0<<;=--%+OX..&xYIj%X           .<",
"+             +>xYIg-+  ..+%*->>;-&#+OXX.X@<AYIr#             .r",
"+              X-pGYAp-O.   .XooOO..   .O,xGYG,O              .<",
"X               .@4MIIAg,&+X. .   ..o+&4gLYYd-O               X4",
"+                 O&4ZIYNVj4<>-*&--<pkMLYYx,+X                .4",
"X                  X+-<gPYPLKNcVVDDDIYYAp,%O                  X<",
"o                    Xo%;<jMDAYYYPDVje,-OX                     e",
"o                       XO@%-=,,>--&%+o.                      X<",
"o                           ..XXo..                           X<",
"o                                                            .X<",
"o                                                             .7",
"o                                                          .  X<",
"+X..XX.X..X..X  XX.X..XXXX..X...........OXXXX.XX.X .XXXX..XX.XO7",
"p4<<4e<24<2e<2e<<4<e4<44<44<4<4e4<422224<r<<4<<e<r<<<e<r<<<<e<ex"
};
