/* XPM */
static char *_2db58c395bd4a2cc5f34794fea4e3fcBunifhoiTHE9yk1y[] = {
/* columns rows colors chars-per-pixel */
"64 64 75 1 ",
"  c #83CEE0",
". c #84CEE0",
"X c #85CEE0",
"o c #86CFE0",
"O c #87CFE1",
"+ c #88CFE1",
"@ c #89D0E1",
"# c #8BD0E2",
"$ c #8ED1E2",
"% c #91D2E2",
"& c #90D2E3",
"* c #93D3E3",
"= c #96D3E3",
"- c #95D3E4",
"; c #94D4E4",
": c #96D4E4",
"> c #97D5E4",
", c #99D5E4",
"< c #99D5E5",
"1 c #9ED7E6",
"2 c #9FD8E6",
"3 c #A0D7E6",
"4 c #A3D8E7",
"5 c #A4D9E7",
"6 c #A8DAE7",
"7 c #A7DAE8",
"8 c #A9DBE8",
"9 c #AADBE8",
"0 c #ACDBE9",
"q c #ABDCE9",
"w c #AFDDEA",
"e c #B3DEEA",
"r c #B6DFEB",
"t c #B7E0EB",
"y c #B8E0EB",
"u c #BBE2EC",
"i c #BCE1EC",
"p c #BEE2ED",
"a c #BFE3ED",
"s c #C0E3EE",
"d c #C2E4EE",
"f c #C6E5EF",
"g c #C7E7EF",
"h c #C8E7EF",
"j c #C7E6F0",
"k c #C9E7F0",
"l c #C9E8F0",
"z c #CEE8F0",
"x c #D1EBF2",
"c c #D5ECF3",
"v c #D7EDF4",
"b c #D9EDF3",
"n c #DBEEF4",
"m c #DDEFF5",
"M c #DCF0F5",
"N c #DEF0F5",
"B c #E1F1F7",
"V c #E3F3F7",
"C c #E5F3F7",
"Z c #E5F3F8",
"A c #E7F5F9",
"S c #E8F4F8",
"D c #E8F5F8",
"F c #ECF6F9",
"G c #EEF8FB",
"H c #F2F9FB",
"J c #F4FAFB",
"K c #F2F9FC",
"L c #F4FAFC",
"P c #F5FBFC",
"I c #F7FBFD",
"U c #F7FCFD",
"Y c #F9FCFD",
"T c #FBFDFE",
"R c white",
/* pixels */
"SzzzzzzzzzzzzzzzzzzzzzzzzzzzzzzzzzzzzzzzzzzzzzzzzzzzzzzzzzzzzzzS",
"z..............................................................z",
"z..............................................................z",
"z..............................................................z",
"z.................................  ...........................z",
"z.............................  ..  ...........................z",
"z.....................  ..%1rpfbchpw1$.........................z",
"z.....................#%dBGRRRRRRRRRRFnr-......................z",
"z...................+5mHRRRRRTUUPTRRRRRRPxe ...................z",
"z..................5mRRRRPNhe21%%18efSPRRRRm1 .................z",
"z............... $fRRRUSe% .  .... ...<pnRRRPz$ ...............z",
"z.............. <ARRRC5................. 3nTRRZ1...............z",
"z..............rGRRFr...................  .0FRRHe..............z",
"z.............yTRRb>..................... ..%nRRTr.............z",
"z........... rTRRl............................kRRP5............z",
"z...........1JRRl+............................+kRRF<...........z",
"z..........%SRRk................................kRRZ$..........z",
"z..........xRRv+.................................mRRf#.........z",
"z.........5TRF%................ .$#.  .......... <FRT5.........z",
"z.........mRT5.............. <dcFKHGnf> ......... eRRB.........z",
"z........rRRn............. 7mPRRRRRRRRHw..........#ART5 .......z",
"z........mRP7........... $nKSktwezGRRRRKe..........5TRB........z",
"z.......<KRn. ..........wNx<#     %NRRRRP7..........CRH%.......z",
"z.......iRRr...........eGe.$rhjd3  $nRRRRN .........eRRt.......z",
"z.......BRJ$........  eF7%zKRRRRTi. 1TRRRT1..#......%JRN+ .....z",
"z......%PRm ........ wF8eKRRRRRRRTe #SRRRRp.%w...... CRF$......z",
"z......1RRd.........<PpeTRRRRRRRRRN..bRRRRj qn ......lRR, .....z",
"z......wRRe........$NN<FRRRFSJRRRRK$.bRRRRd vP<..... rRRy .....z",
"z......jRP1.......#cT7xRRB8$#%bRRRb.#BRRRRe%GRl..... 5TRp......z",
"z..... kRP>.......fRN$HRx#.. .5RRx$.<JRRRZ#dRRP3.... 1TRl......z",
"z..... bRP%.....#kTT74TC# ....8Gp  .xRRRRr3PRRRn+....:JRx......z",
"z..... bRP$....&NRRN.qTd  ....$#..#fRRRRd$NRRRRRy....:URb .....z",
"z..... jRT2 .+eSRRP7 7Tz... ...#$ebRRRTp+cRRRRRRUe  .1TRf .....z",
"z......dRP1#5xTRRRp. %UU4.. $dNSTRRRPv-$cRRRPdRRRUp# 6TRd......z",
"z..... tRTNBTRRRRc.. .NRK2  .+%dxxzr$.5BRRRTr#nRRRRbqdRRw......z",
"z..... 4RRRRRRRRn$....8TRKi$  . ....%hPRRRTd  %GRRRRRRRR2 .....z",
"z......%GRRRRRHe ......zRRRSz7=$%%7zJRRRRTr ...4HRRRRRRG$......z",
"z......+BRRRHf$.  .....#nRRRRRRKKRRRRRRRC6  .  .4SRRRRRm.......z",
"z.......pRRc$...........#fURRRRRRRRRRRPf$....... $zKTRRr.......z",
"z.......%HRC...........$. 1kSPTRRRTKnr% $......... >ARK:.......z",
"z.......#NRTe ....... 2S2....<wypp5%. .8C2 ........4TRn........z",
"z........5RRc .......2FRB%...... ..  .rHRF1. ......cRTt........z",
"z........#NRRe .... 4FRRRN>...... ...rTRRRF4. . ..eRRn.........z",
"z........ 4RRS:.. $dURRRRRZ6+......1xTRRRRRUp#. .<GRT<.........z",
"z..........lRRz$<fGTRRTzTRRTBr545pcTRRRJzURRRSp1$cRRz..........z",
"z..........>CRRSTRRRRSq.rTRRRRRRRRRRRRFw.4SRRRRJSRRC$..........z",
"z...........2HRRRRRRz<...0ATRRRRRRRRUc=...<cRRRRRRG1...........z",
"z............yTRRRBe.......qnSPUTHSf3 .....+wSRRRH5............z",
"z.............yRRRc%........ #<42:. ........>zRRH5.............z",
"z..............yJRRS5.. ...................0SRRF5..............z",
"z.............. 4ARRTv3   ...............eCRRRS1...............z",
"z................$xPRRTni$ .......... $wBRRRRl%................z",
"z..................5NRRRRHBfe4<%:<2wfNHRRRRm8+.................z",
"z....................rcURRRRRTUPJTJRRRRRJB6....................z",
"z......................<rmHRRRRRRRRRRGBd=+.....................z",
"z.......................  %3wplnnldt4%.........................z",
"z.............................    .............................z",
"z..............................................................z",
"z..............................................................z",
"z..............................................................z",
"z..............................................................z",
"z..............................................................z",
"z..............................................................z",
"SzzzzzzzzzzzzzzzzzzzzzzzzzzzzzzzzzzzzzzzzzzzzzzzzzzzzzzzzzzzzzzS"
};
