/* XPM */
static char *_0d8078e87b04baeea5dd1120012513e2fmLBqY8WsrMY2kr[] = {
/* columns rows colors chars-per-pixel */
"64 64 70 1 ",
"  c #FF461E",
". c #FF4720",
"X c #FF4924",
"o c #FF4D2C",
"O c #FF502E",
"+ c #FF4F30",
"@ c #FF5233",
"# c #FF563B",
"$ c #FF593E",
"% c #FF5C44",
"& c #FF5F4A",
"* c #FF6047",
"= c #FF634D",
"- c #FF6550",
"; c #FF6A55",
": c #FF6D5B",
"> c #FF715E",
", c #FF7463",
"< c #FF7967",
"1 c #FF7C6D",
"2 c #FF7F71",
"3 c #FF8374",
"4 c #FF8678",
"5 c #FF897C",
"6 c #FF8E82",
"7 c #FF9186",
"8 c #FF958A",
"9 c #FF998E",
"0 c #FF9C92",
"q c #FFA196",
"w c #FFA49B",
"e c #FFA89F",
"r c #FFACA4",
"t c #FFAFA8",
"y c #FFB3AC",
"u c #FFB7B0",
"i c #FFBBB4",
"p c #FFBFB9",
"a c #FFC0BC",
"s c #FFC6C1",
"d c #FFCBC5",
"f c #FFCFCB",
"g c #FFD0CB",
"h c #FFD1CC",
"j c #FFD4CF",
"k c #FFD4D0",
"l c #FFD8D3",
"z c #FFD8D5",
"x c #FFDCD8",
"c c #FFDCD9",
"v c #FFDDDA",
"b c #FFDEDB",
"n c #FFE2DE",
"m c #FFE3E0",
"M c #FFE5E3",
"N c #FFE7E4",
"B c #FFEAE7",
"V c #FFEAE8",
"C c #FFEDEB",
"Z c #FFEFEE",
"A c #FFF0EE",
"S c #FFF3F2",
"D c #FFF4F3",
"F c #FFF7F6",
"G c #FFF7F7",
"H c #FFF8F7",
"J c #FFF9F8",
"K c #FFFCFB",
"L c #FFFCFC",
"P c #FFFDFD",
/* pixels */
"a                                                               ",
"a                                                               ",
"a                                                               ",
"a                                                               ",
"p.                                                              ",
"a                                                               ",
"a                                                               ",
"p.                      X,wahMMACnlsw3o                         ",
"a                    X4sCPPPPPPPPPPPPPSf7#                      ",
"a                  @rNPPPPPPPDBNBCPPPPPPPAy@                    ",
"a                 7ZPPPPFkr3*@ooo@%<qfZPPPPAy@                  ",
"a               =zPPPPk9o    X        X3kJPPPn,.                ",
"a              6DPPPk2                   ;sKPPPwX               ",
"a            XtPPPV9    @                  2mPPPd@              ",
"a           XyPPPf%    7h                   oiJPPf@             ",
"a         .XuPPPy.   XtPz                     8HPPfo            ",
"a          wPPJr.    qPPz                      7FPPa            ",
"a        .3DPPyX    -SPPl                       8FPP0           ",
"a        #mPPaX    .aPPPMX                       qPPF>          ",
"p.       uPPv#     oVPPPZ$                       XsPPk          ",
"p       ;FPJ1      &PPPPP4X                       @CPP9         ",
"p       sPPi       =PPPPPa                         8PPNX        ",
"a.     =JPV%       %JPPPPJ1                  o1    XnPP9        ",
"p.     iPPy        oNPPPPPV5X   Xo           oB5    5PPz        ",
"p     XVPJ:         pPPPPPPPNaakBBo          oZA;   XMPJ=       ",
"s.    1PPk          2PPPPPPPPPPPPH4          @APv@   uPPw       ",
"p     yPPq          onPPPPPPPPPPPPh          OCPPiX  >PPk       ",
"p     vPP:           rPPPPPPPPPPPPJ3         $APPK5  oCPSo      ",
"a.    APN            &APPPzAPPPPPPPz+        ,PPPPB#  fPJ,      ",
"p.   #PPz             yPPPv$7fFPPPPPyX       0PPPPPp  uPP6      ",
"p..  ,PPs             *APPPw  -wNPPPJ9      ovPPPPPH, wPPr      ",
"a.   4PPy              uPPPF;   @6kPPFr.   opPPPPPPPl 6PPy      ",
"p   XqPPt              ,JPPPlX    X2kPPv0,8vPPPPPZPPP43PPp      ",
"a    0PPr               kPPPKw      X7BPPPPPPPPPPqSPPz3PPs      ",
"a    5PPi               0PPPPD$       #aPPPPPPPPP1rPPPrPPy      ",
"p    3PPa   .X          *FPPPPa         6FPPPPPPB@=PPPJPPw      ",
"a    @PPl   %j2          zPPPPJ:         4DPPPPPy  vPPPPP8      ",
"a     DPAX   NH4         fPPPPPa          4JPPPA=  yPPPPH,      ",
"a     vPH;   kPB@        iPPPPPF#         .dPPD7   9PPPPD@      ",
"a    XyPP9   fPPq        iPPPPPP6          ,KF7    ,PPPPj       ",
"a     2PPkX  hPPVo       uPPPPPPr          @a1     >PPPPt       ",
"p     oVPJ:  nPPPq       uPPPPPPd   12X            ,PPPJ;       ",
"a.     pPPt %FPPPS:     ,gPPPPPPh   0KM0           9PPPv        ",
"a.     :JPV$9PPPPPC4 X6lKPPPPPPPi   %DPPz%         yPPP0        ",
"a      .hPPyzPPPPPPPMSPPPPPPPPPS=    kPPPA>        lPPNX        ",
"a       1JPPKPPPPPPPPPPPKa5wPPP0     rPPPPM#      *JPP9         ",
"a        iPPPPPPPPPPPPPS6   CFq      9PPPPPy      aPPv          ",
"p        *CPPPPPPPPPPPJ8    y,       8PPPPPCo    7PPF,          ",
"a         4FPPPPPPPPPPa              uPPPPPJ;   4DPPr           ",
"a.         yPPPPPPPPPP4             ;SPPPPPJ=  3SPPd            ",
"p          XaPPPPPPPPF%            2BPPPPPPBo 5DPPz$            ",
"a           oaPPPPPPPH*           4FPPPPPPH9OrFPPz$             ",
"a.           oaPPPPPPP8          ovPPPPPPPi:vPPPk%              ",
"p             X9HPPPPPM%         -HPPPPPPfiDPPPi@               ",
"a.              ,vPPPPPv=        onPPPPPPFPPPZ7.                ",
"a.               XtSPPPPAge,O     1SPPPPPPPJu%                  ",
"a                  #rZPPPPPPJSMnNAPPPPPPPFa:.                   ",
"a                    @7dJPPPPPPPPPPPPPKzw+.                     ",
"a                       o4yfnVSKDZnhi7@                         ",
"p                                                               ",
"a                                                               ",
"a                                        .                      ",
"p                                       ....  ....  .  .  .. .  ",
"naaaaaaaaaaaaaaaaapaaaaaapapaaaapaaaaaaaappapppsppapaapaappaapap"
};
