/* XPM */
static char *_29e3e46606243fbf9ea07d661bf9057WSbP2nt7f75HbFha[] = {
/* columns rows colors chars-per-pixel */
"64 64 80 1 ",
"  c #36D2AB",
". c #3AD2AC",
"X c #44D4AE",
"o c #49D4AF",
"O c #4CD5B0",
"+ c #54D6B2",
"@ c #5AD6B4",
"# c #5ED8B7",
"$ c #62D7B5",
"% c #63D8B6",
"& c #69D8B7",
"* c #67D9B8",
"= c #6CD9B9",
"- c #74DABB",
"; c #7CDBBD",
": c #7EDDC0",
"> c #81DBBF",
", c #85DDC1",
"< c #8ADEC3",
"1 c #90DFC6",
"2 c #8DE0C6",
"3 c #95E1C9",
"4 c #9DE3CC",
"5 c #A2E4CE",
"6 c #A5E5D1",
"7 c #ABE7D3",
"8 c #AEE8D5",
"9 c #B0E7D4",
"0 c #B4E8D7",
"q c #B7EAD9",
"w c #BBEBDB",
"e c #C0ECDE",
"r c #C2ECDE",
"t c #C3EDDF",
"y c #C3EDE0",
"u c #C4EDE0",
"i c #C6EEE1",
"p c #C9EFE3",
"a c #CAEEE2",
"s c #CBEFE3",
"d c #C7F0E3",
"f c #CDF0E4",
"g c #CFF0E5",
"h c #D2F1E6",
"j c #D2F1E7",
"k c #D6F3EA",
"l c #D7F3EA",
"z c #D9F3EA",
"x c #DBF4EB",
"c c #DCF4EB",
"v c #DAF4EC",
"b c #DDF4EC",
"n c #E0F6EE",
"m c #E3F6EF",
"M c #E2F7F0",
"N c #E5F7F1",
"B c #E6F7F1",
"V c #E7F7F2",
"C c #E6F8F2",
"Z c #E8F8F3",
"A c #E9F8F3",
"S c #EBF9F5",
"D c #ECF8F4",
"F c #ECF9F5",
"G c #EDFAF6",
"H c #F1FAF6",
"J c #F1FAF7",
"K c #F0FBF7",
"L c #F2FBF8",
"P c #F4FBF8",
"I c #F4FBF9",
"U c #F3FCF9",
"Y c #F5FCFA",
"T c #F6FCFA",
"R c #F8FDFB",
"E c #F8FDFC",
"W c #FAFDFC",
"Q c #FCFEFD",
"! c #FDFEFE",
"~ c #FEFFFE",
/* pixels */
"5;;;;;;;;;;;>>;>;>>>>>>;,>>,,>>>>,,>,>,,,,,,,,,,<,<><><<<<<><,<6",
"<                                                           . .-",
"<                                                             .-",
"<                                                              -",
"<                                                              &",
"<                                                             .-",
"<                                                              &",
"<                        +,6wllSFmze7<+                      ..-",
"<                     X4lSW~~~~~~~~~~WIz3+                     -",
"<                   =yS~~~~~WICvcBAW~~~~~H0+                   -",
">                 X0U~~~Wvw,&$+XX+@=<wcI~~~H0@                 -",
"<                ,b~~~S6&X         .  X%wB~~~v<                -",
">               6IW~C6@.                .+0H~~W6               -",
"<             XwW~~k$.                     %a~~WeO             -",
">            Xa~WE6O                        O4IW~sX            -",
"<            e~~E2.                           <I~~e            -",
"<           6E~Y2.                             ;I~E7           -",
">          ,I~Y<                               .<I~I<          -",
"<.        +z~~3                                  4E~BX         -",
">.        0~~fO                              :7- .a~~q         ;",
">        @S~U&                             .8W~I5 $H~I-        -",
"<        0W~6                             .8~~~~E5 7~~y.       ;",
"<       @H~Y& @av5X                       4~~~~~~E5+B~IX       -",
">       <~~w.+b~~~wX           O         3~~~~~~~~I5r~~4       ;",
">.      z~I&Xb~~~~~w.         <FC6      ;I~~~~~~~~~WwW~v       ;",
">.     +H~bXq~~~~~~~wX       7W~~~w.   $A~~~~~~~~~~~WE~I+      -",
">      <W~w5W~~~~~~~~w..    7~~~~~~u  %S~~~~~~~~~~~~~~~W<      ;",
"<      7~~8I~~~~~~~~~~w.   7~~~~~~~~y.M~~~~~~4wU~~~~~~~~8      ;",
">      e~~F~~~~~~~~~~~~uX 7~~~~~~~~~~B~~~~~~p  4~~~~~~~~w      -",
">      z~~~~~~~~~~~~~~~~f6~~~~~~~~~~~~~~IpI~4  XlY~ly~~~v      ;",
">      m~~~~~~~~~~~IqW~~~~~~~~~~~~~~~~~~: %B=   &@,wOy~~v      ;",
">.     H~~~aw~~~~~~0 ,F~~~~~~~~~~~~~~~~~8  :.      * Om~H      ;",
",      S~~yXa~YB~~I+  :W~~~~~~~~~~~~~~~~~8           Xl~H      ;",
">      l~bO HS; -Y0   7~~~~~~~~~~~~~~~~~~~7          OM~S      ;",
",      l~F@-j$   w+  1~~~~~~~~~~~~~~~~~~~~~8         OM~j      ;",
">      w~W&@X       $I~~~~~~~~~~~~~~~~~~~~~~8        $W~y.     ;",
">      6~~,        %B~~~~~~~~~~~~~~~~~~~~~~~~7       ,~~7      ;",
">      <W~q       +B~~~~~~~~~~~~~~I~~~~pv~~~~~7      6~W1      ;",
">      +I~l.     .v~~~~~~~~~~veS~~5:a~~7 &f~~~W7    Xv~I@      ;",
">       l~W=    .q~~~~vu~~~~w. #B~b  &Fu ..9~~~~7   @I~b       ;",
">       4W~6   .9~~~v&.2W~~~&   OS~O  +d    7~~~~7. q~~5       ;",
">       XH~C+ .8~~~wX  q~~Cj.    ,~w   O    .0~~~R7+m~I+       ;",
",        y~~6 6~~~zX   jW7.@     .wZ         .y~~~~B~~q        ;",
";        -I~C7~~~F-  ..F6..       OI#         %F~~~~~I+        ;",
";         0~~~~~~8    45           y:          3~~~~~w         ;",
">         XC~~~~F+    -            :O          Ob~~~v@         ,",
">          <Y~~~jX                              7~~W<.         >",
">           6W~~4                              ,I~W7           ;",
";            e~~I<                           .,I~~u.           ;",
">            oj~~I6X                        .<I~~jX            ,",
";             XyW~~a$                     .+wW~~aX             ;",
">               6R~~Iw$                 .O4B~~Y7               ,",
";                <x~~~Iw&o            .$4B~~WB<                ;",
";                 +0I~~~~bw,&@OO.O+$-7lE~~~I7O                 >",
";                   +wH~~~~~~IMbxbSI~~~~~Ia-                   >",
";                     +4bIW~~~~~~~~~~WIv6X                     >",
";                        @18ujMIHvvw7<@                        ,",
";                                   ..                         ;",
";                                                              ,",
";                                                              >",
";                                                              >",
";                                                              >",
";                                          .                   >",
"5>>>>>>,;>>>>>>;>;>>;;;;;;;;;;-;;;;;-;;-;--;-;----------------;1"
};
