/* XPM */
static char *_a6805c013cc4427da7fabef0e9531ec1DaqOgdjA17SiAM4[] = {
/* columns rows colors chars-per-pixel */
"66 66 123 2 ",
"   c None",
".  c #1DD1A8",
"X  c #2ED1AA",
"o  c #36D2AB",
"O  c #3BD2AC",
"+  c #43D4AE",
"@  c #48D4AF",
"#  c #4ED5B1",
"$  c #54D6B2",
"%  c #5BD7B4",
"&  c #5FD9B8",
"*  c #64D7B6",
"=  c #64D9B7",
"-  c #6AD8B7",
";  c #64D9B8",
":  c #6DDABA",
">  c #73DBBC",
",  c #7BDCBE",
"<  c #7FDCC0",
"1  c #82DEC2",
"2  c #8BDEC4",
"3  c #85E0C5",
"4  c #8BE0C6",
"5  c #8DE1C8",
"6  c #90E0C7",
"7  c #94E2CA",
"8  c #9BE3CC",
"9  c #9EE6D0",
"0  c #A1E5CF",
"q  c #A3E6D1",
"w  c #A9E7D4",
"e  c #A7E8D3",
"r  c #ACE9D6",
"t  c #B0EAD7",
"y  c #B5EBD9",
"u  c #BFEADB",
"i  c #C1EDDF",
"p  c #C6EFE1",
"a  c #C1EEE0",
"s  c #C8EFE2",
"d  c #C8EFE3",
"f  c #C8F0E2",
"g  c #C9F0E3",
"h  c #CAF0E3",
"j  c #CCF0E3",
"k  c #CAF0E4",
"l  c #CAF0E5",
"z  c #CFF1E5",
"x  c #CFF1E6",
"c  c #D1F1E6",
"v  c #D1F1E7",
"b  c #D0F2E7",
"n  c #D6F3E9",
"m  c #D4F3EA",
"M  c #D5F3EA",
"N  c #D6F3EA",
"B  c #D6F4EB",
"V  c #DDF3EB",
"C  c #DAF4EC",
"Z  c #DBF5EC",
"A  c #DCF4EC",
"S  c #DCF5ED",
"D  c #DDF5ED",
"F  c #DEF4EC",
"G  c #DDF5EE",
"H  c #E1F5ED",
"J  c #E2F5EE",
"K  c #E0F6EF",
"L  c #E0F7EF",
"P  c #E0F7F0",
"I  c #E1F7F1",
"U  c #E4F7F0",
"Y  c #E7F7F1",
"T  c #E1F7F1",
"R  c #E8F7F1",
"E  c #E8F7F2",
"W  c #EAF7F2",
"Q  c #E7F8F2",
"!  c #E6F8F3",
"~  c #E8F8F2",
"^  c #E9F8F3",
"/  c #EAF8F3",
"(  c #E9F9F4",
")  c #ECF8F4",
"_  c #ECF9F5",
"`  c #EDFAF5",
"'  c #EEFAF5",
"]  c #EDFAF6",
"[  c #EEFAF6",
"{  c #EFFAF6",
"}  c #EFFAF7",
"|  c #EEFBF7",
" . c #EDFAF6",
".. c #F0FAF6",
"X. c #F0FAF7",
"o. c #F1FAF7",
"O. c #F0FBF7",
"+. c #F1FBF7",
"@. c #F0FBF8",
"#. c #F2FBF8",
"$. c #F3FBF8",
"%. c #F4FBF9",
"&. c #F3FCF9",
"*. c #F5FCF9",
"=. c #F5FCFA",
"-. c #F6FCFA",
";. c #F7FCFB",
":. c #F7FDFB",
">. c #F7FDFB",
",. c #F8FDFB",
"<. c #F8FDFC",
"1. c #F9FDFC",
"2. c #FAFDFC",
"3. c #FAFEFD",
"4. c #FBFEFD",
"5. c #FCFEFD",
"6. c #FCFEFE",
"7. c #FDFEFE",
"8. c #FDFFFE",
"9. c #FEFFFE",
"0. c #FEFFFF",
"q. c white",
"w. c white",
/* pixels */
"    u u i u u u i u u u u u u i i u u i u u u u i u u u i i u u u i u u u u i u u u u u i u u u u i u u i u i u u u u u u u i u u V ",
"  o o o o o o o o o o o o o o o o o o o o o o o o o o o o o o o o o o o o o o o o o o o o o o o o o o o o o o o o o o o o o o o o u ",
"  o o o o o o o o o o o o o o o o o o o o o o o o o o o o o o o o o o o o o o o o o o o o o o o o o o o o o o o o o o o o o o o o u ",
"  o o o o o o o o o o o o o o o o o o o o o o o o o o o o o o o o o o o o o o o o o o o o o o o o o o o o o o o o o o o o o o o o u ",
"  o o o o o o o o o o o o o o o o o o o o o o o o o o o o o o o o o o o o o o o o o o o o o o o o o o o o o o o o o o o o o o o o u ",
"  o o o o o o o o o o o o o o o o o o o o o o o o o o o o o o o o o o O o o o o o o o o o o o o o o o o o o o o o o o o o o o o o u ",
"  o o o o o o o o o o o o o o o o o o o o o o o o o o o o o o o o o O O o o o o o o o o o o o o o o o o o o o o o o o o o o o o o u ",
"  o o o o o o o o o o o o o o o o o o o o o o o o o o X + % < < 8 6 2 , * O X o o o o o o o o o o o o o o o o o o o o o o o o o o u ",
"  o o o o o o o o o o o o o o o o o o o o o o o + , w I q.q.q.q.2.2.5.7.q.q._ y 2 X o o o o o o o o o o o o o o o o o o o o o o o u ",
"  o o o o o o o o o o o o o o o o o o o o o : 0 :.q.q.q.q.q.q.q.2.2.7.7.q.q.q.q.q.=.y % o o o o o o o o o o o o o o o o o o o o o u ",
"o o o o o o o o o o o o o o o o o o o o % m q.q.q.q.q.1.R c i 8 : > 8 r v ) =.q.q.q.q.q.y % o o o o o o o o o o o o o o o o O o o u ",
"  o o o o o o o o o o o o o o o o o # 8 1.q.q.q.o.x > O o o o o o o o o o o O - y =.q.q.q.q.y o o o O o o o o o o o o o o o o o o u ",
"  o o o o o o o o o o o o o o o o % #.q.q.q.#.6 o o o o o o o o o o o o o o o o o O 9 =.q.q.q.=.% O O o o o o o o o o o o o o o o u ",
"  o o o o o o o o o o o o o o o > ,.q.q.1.5 O o o o o o o o o o o o o o o o o o o o o + t =.q.q.%.> o o o o o o o o o o o o o o O u ",
"  o o o o o o o o o o o o O o 8 q.q.q.o.% o o o o o o o o o o o o o o o o o o o o o o o o % o.q.7.2.8 o o o o o o o o o o o o o o u ",
"o o o o o o o o o o o o o O 8 5.q.q.t + o o o o o o o o o o o o o o o o o o o o o o o o o o o t 7.2.2.8 o o o o o o o o o o o o o u ",
"  o o o o o o o o o o o o > q.q.q.r o o o o o o o o o o o o o o o o o o o o o o o o o o o o o o t 7.7.7.> o o o o o o o o o o o o u ",
"  o o o o o o o o o o o % 1.q.q.t o o o o o o o o o o o o o o o o o o o o o o o o o o o o o o o O r q.7.,.% o o o o o o o o o o o u ",
"  o o o o o o o o o o o :.q.q.t o o o o o o o o o o o o o o o o o o o o o o o o o o o o o o o o o o t q.q.=.@ o o o o o o o o o o u ",
"  o o o o o o o o o o y q.q._ o o o o o o o o o o o o o o o o o o o o o o o o o o o o o o o o o o o o c q.q.8 o o o o o o o o o o u ",
"  o o o o o o o o o $ q.q.:.% o o o o o o o o o o o o o o o o o o o o o o o o o o o o o o o 3 ) w $ o $ 1.q.q.% o o o o o o o o o u ",
"  o o o o o o o o o y q.q.y o o o o o o o o o o o o o o o o o o o o o o o o o o o o o o o r q.q.q._ # o y q.q.m o o o o o o o o o u ",
"  o o o o o o o o % q.q.&.O o o + o o o o o o o o o o o o o o o o o o o o o o o o o o o r q.q.q.q.q._ $ o o.q.q.: o o o o o o o o u ",
"  o o o o o o o o y q.q.y o o 8 ;.o.q o o o o o o o o o o o o o o o o o o o o o o o o 6 q.q.q.q.q.q.q._ # 5 q.q.0 o o o o o o o o u ",
"  o o o o o o o X :.q.:.O o q q.q.q.q.q o o o o o o o o o o o o % o o o o o o o o o , q.q.q.q.q.q.q.q.q._ % 1.q.:.@ o o o o o o o u ",
"  o o o o o o o 1 q.q.y o 1 q.q.q.q.q.q.9 o o o o o o o o o o t q.1.i o o o o o o : ,.q.q.q.q.q.q.q.q.q.q._ B q.q., o o o o o o o u ",
"  o o o o o o o y q.q.- # q.q.q.q.q.q.q.q.q o o o o o o o o h q.q.q.q.m X o o o % _ q.q.q.q.q.q.q.q.q.q.q.q.:.q.q.w o o o o o o o u ",
"  o o o o o o o _ q.:.$ ( q.q.q.q.q.q.q.q.q.q o o o o o X h q.q.q.q.q.q.Z X o % _ q.q.q.q.q.q.q.q.q.q.q.q.q.q.q.q.P X o o o o o o u ",
"  o o o o o o O q.q._ i q.q.q.q.q.q.q.q.q.q.q.q o o o X h q.q.q.q.q.q.q.q.D . ! q.q.q.q.q.q.5 < ! q.q.q.q.q.q.q.q.q.+ o o o o o o u ",
"  o o o o o o - q.q.,.q.q.q.q.q.q.q.q.q.q.q.q.q.u X o h q.q.q.q.q.q.q.q.q.q.o.q.q.q.q.q.q.o.o o + 1.q.q.q.q.q.q.q.q.% o o o o o o u ",
"  o o o o o o 1 q.q.q.q.q.q.q.q.q.q.q.q.q.q.q.q.q.u a q.q.q.q.q.q.q.q.q.q.q.q.q.q.1.u D q.p o o o < q.q.1.1 1.q.q.q.1 o o o o o o u ",
"  o o o o o o 6 q.q.q.q.q.q.q.q.q.q.q.q.C h q.q.q.q.q.q.q.q.q.q.q.q.q.q.q.q.q.q.q.1 o o x 5 o o o O % X d % > 1.q.q.< o o o o o o u ",
"  o o o o o o 7 q.q.q.1.7 1.q.q.q.q.q.1.* o 6 q.q.q.q.q.q.q.q.q.q.q.q.q.q.q.q.q.q.h o o $ o o o o o o o o # o 3 q.q.8 o o o o o o u ",
"  o o o o o o 8 q.q.1., $ q.q._ H q.q.Z o o o 8 q.q.q.q.q.q.q.q.q.q.q.q.q.q.q.q.q.q.p o o o o o o o o o o o o : q.q.8 o o o o o o u ",
"  o o o o o o < q.q.1 o , q.j o X y q.* o o o p q.q.q.q.q.q.q.q.q.q.q.q.q.q.q.q.q.q.q.h o o o o o o o o o o o 8 q.q.2 o o o o o o u ",
"  o o o o o o 1 q.q.r o y i o o o + m o o o t q.q.q.q.q.q.q.q.q.q.q.q.q.q.q.q.q.q.q.q.q.p o o o o o o o o o o 8 q.q.> o o o o o o u ",
"  o o o o o o % q.q.c o 1 o o o o o o o o : 1.q.q.q.q.q.q.q.q.q.q.q.q.q.q.q.q.q.q.q.q.q.q.d o o o o o o o o o c q.q.* o o o o o o u ",
"  o o o o o o O q.q.R o o o o o o o o o : :.q.q.q.q.q.q.q.q.q.q.q.q.q.q.q.q.q.q.q.q.q.q.q.q.d o o o o o o o o / q.q.+ o o o o o o u ",
"  o o o o o o o I q.:.O o o o o o o o $ 1.q.q.q.q.q.q.q.q.q.q.q.q.q.q.1.q.q.q.q.m ! q.q.q.q.q.p o o o o o o O o.q._ X o o o o o o u ",
"  o o o o o o o w q.q.$ o o o o o o + <.q.q.q.q.q.q.q.q.q.q.! Z :.q.q.q 5 H q.q.a o $ V q.q.q.q.h o o o o o : q.q.y o o o o o o o u ",
"  o o o o o o o , q.q.x o o o o o o Z q.q.q.q./ / q.q.q.q.i o o : #.q.D o o % &.I o o o q q.q.q.q.p O o o o y q.q.2 o o o o o o o u ",
"  o o o o o o o @ :.q._ o o o o o i q.q.q.Y $ o 9 q.q.q.q.- o o o # :.q.o o o @ I o o o o 1 q.q.q.q.p o o O =.q.:.X o o o o o o o u ",
"  o o o o o o o o 0 q.q.5 o o O i q.q.q.p o o o H q.q.:.d X o o o o 4 q.y o o o # o o o o o 4 q.q.q.q.p O q q.q.y o o o o o o o o u ",
"  o o o o o o o o : q.q.#.O o a q.q.q.d o o o o _ q.y o : o o o o o o d | o o o o o o o o o o e q.q.q.q.D :.q.q.% o o o o o o o o i ",
"  o o o o o o o o o m q.q.5 q q.q.q.o.# o o o o <.q o o o o o o o o o # q.& o o o o o o o o o O _ q.q.q.q.q.q.y o o o o o o o o o u ",
"  o o o o o o o o o % q.q.q.q.q.q.q.- o o o o q q o o o o o o o o o o o u 3 o o o o o o o o o o % 1.q.q.q.q.q.% o o o o o o o o o u ",
"  o o o o o o o o o o 0 q.q.q.q.q._ o o o o O 4 o o o o o o o o o o o o 4 ; o o o o o o o o o o o x q.q.q.q.y o o o o o o o o o o u ",
"  o o o o o o o o o o + #.q.q.q.q.e o o o o o o o o o o o o o o o o o o o o o o o o o o o o o o o $ 1.q.q.#.o o o o o o o o o o o u ",
"  o o o o o o o o o o o % 5.q.q.1.# o o o o o o o o o o o o o o o o o o o o o o o o o o o o o o o t q.q.,.* o o o o o o o o o o o u ",
"  o o o o o O o o o o o o > q.q.q.r o o o o o o o o o o o o o o o o o o o o o o o o o o o o o o t q.q.q.> o o o o o o o o o o o o i ",
"  o o o o o o o o o o o o o 8 q.q.q.t O o o o o o o o o o o o o o o o o o o o o o o o o o o o y q.q.q.8 o o o o o o o o o o o o o u ",
"  o o o o o o o o o o o o o o 8 q.q.q.o.% o o o o o o o o o o o o o o o o o o o o o o o o # c q.q.q.8 o o o o o o o o o o o o o o u ",
"  o o o o o o o o o o o o o o o > 1.q.q.=.t + o o o o o o o o o o o o o o o o o o o o O 4 :.q.q.1.> o o o o o o o o o o o o o o o u ",
"  o o o o o o o o o o o o o o o o % =.q.q.q.=.y + o o o o o o o o o o o o o o o o O 5 o.q.q.q.#.% o o o o o o o o o o o o o o o o u ",
"  o o o o o o o o o o o o o o o o o o y q.q.q.q.=.R 1 O o o o o o o o o o o O $ x o.q.q.q.1.8 @ o o o o o o o o o o o o o o o o o u ",
"o o o o o o o o o o o o o o o o o o o o % y q.q.q.q.q.:.) Y i 8 3 > 3 r c R #.q.q.q.q.q.m $ o o o o o o o o o o o o o o o o o o o u ",
"  o o o o o o o o o o o o o o o o o o o o o $ y :.q.q.q.q.q.q.q.q.q.q.q.q.q.q.q.q.,.0 > o o o o o o o o o o o o o o o o o o o o o u ",
"  o o o o o o o o o o o o o o o o o o o o o o o X 2 y _ q.q.q.q.q.q.q.q.q.q.H w , @ o o o o o o o o o o o o o o o o o o o o o o o i ",
"  o o o o O o o o o o o o o o o o o o o o o o o o o o X + ; > 6 8 7 < < % O o o o o o o o o o o o o o o o o o o o o o o o o o o o u ",
"  o o o o o o o o o o o o o o o o o o o o o o o o o o o o o o o o o O o o o o o o o o o o o o o o o o o o o o o o o o o o o o o o u ",
"  o o o o o o o o o o o o o o o o o o o o o o o o o o o o o o o o o o o o o o o o o o o o o o o o o o o o o o o o o o o o o o o o u ",
"  o o o o o o o o o o o o o o o o o o o o o o o o o o o o o o o o o o o o o o o o o o o o o o o o o o o o o o o o o o o o o o o o i ",
"o o o o o o o o o o o o o o o o o o o o o o o o o o o o o o o o o o o o o o o o o o o o o o o o o o o o o o o o o o o o o o o o o i ",
"  o o o o o o o o o o o o o o o o o o o o o o o o o o o o o o o o o o o o o o o o o o o o o o o o o o o o o o o o o o o o o o o o i ",
"  o o o o o o o o o o o o o o o o o o o o o o o o o o o o o o o o o o o o o o o o o o o o o o o o o o o o o o o o o o o o o o o O   ",
"                    o                                                                                         o                     "
};
