/* XPM */
static char *_a4e011d1d164a1def7b72c905c14f02MAyoaYZxXbVlgaoe[] = {
/* columns rows colors chars-per-pixel */
"67 67 140 2 ",
"   c None",
".  c #97B4D4",
"X  c #98B5D4",
"o  c #9EB9D6",
"O  c #A0BBD7",
"+  c #A4BDD9",
"@  c #A8BFDA",
"#  c #A7C0DA",
"$  c #ABC2DB",
"%  c #B1C6DD",
"&  c #B5C9DF",
"*  c #B6CAE0",
"=  c #BBCCE1",
"-  c #BED0E3",
";  c #C3D3E5",
":  c #C8D6E7",
">  c #CAD8E7",
",  c #C9D7E8",
"<  c #CDDAE9",
"1  c #D1DDEB",
"2  c #D2DEEC",
"3  c #D3DEEC",
"4  c #D3DFEC",
"5  c #D4DEEC",
"6  c #D5DFEC",
"7  c #D4DFED",
"8  c #D1DDEB",
"9  c #D5E0EC",
"0  c #D6E0EC",
"q  c #D6E1ED",
"w  c #D7E1ED",
"e  c #D6E1EE",
"r  c #D6E2EE",
"t  c #D7E2EE",
"y  c #D8E1ED",
"u  c #D8E2EE",
"i  c #D9E2EE",
"p  c #D8E3EE",
"a  c #D8E3EF",
"s  c #D9E3EF",
"d  c #DAE3EE",
"f  c #DAE3EF",
"g  c #DAE4EF",
"h  c #DBE4EF",
"j  c #DCE5EF",
"k  c #DDE5EF",
"l  c #DAE4F0",
"z  c #DBE5F0",
"x  c #DCE5F0",
"c  c #DCE6F0",
"v  c #DDE6F0",
"b  c #DDE6F1",
"n  c #DFE7F0",
"m  c #DEE6F1",
"M  c #DEE7F1",
"N  c #DFE7F1",
"B  c #DDE6F1",
"V  c #DFE8F2",
"C  c #E0E8F1",
"Z  c #E1E8F1",
"A  c #E0E8F2",
"S  c #E0E9F2",
"D  c #E1E9F2",
"F  c #E1E9F3",
"G  c #E2E9F2",
"H  c #E2EAF3",
"J  c #E3EAF3",
"K  c #E3EBF3",
"L  c #E4EBF3",
"P  c #E5EBF3",
"I  c #E6ECF3",
"U  c #E3EBF4",
"Y  c #E4ECF4",
"T  c #E5ECF4",
"R  c #E7EDF4",
"E  c #E7EEF5",
"W  c #E2EAF3",
"Q  c #E8EDF5",
"!  c #E8EEF5",
"~  c #E9EFF5",
"^  c #EAEFF5",
"/  c #E8EFF6",
"(  c #E9EFF6",
")  c #EAEFF6",
"_  c #E9F0F6",
"`  c #EAF0F6",
"'  c #EBF0F6",
"]  c #EAF0F7",
"[  c #EBF1F7",
"{  c #ECF0F6",
"}  c #ECF1F6",
"|  c #ECF1F7",
" . c #EDF1F7",
".. c #EDF2F7",
"X. c #EEF2F7",
"o. c #EEF3F7",
"O. c #ECF2F8",
"+. c #EDF2F8",
"@. c #EEF2F8",
"#. c #EEF3F8",
"$. c #EFF3F8",
"%. c #EFF4F8",
"&. c #EFF4F9",
"*. c #F0F4F8",
"=. c #F0F4F9",
"-. c #F0F5F9",
";. c #F1F5F9",
":. c #F2F5F9",
">. c #F2F6FA",
",. c #F3F6FA",
"<. c #F3F7FA",
"1. c #F4F7FA",
"2. c #F4F7FB",
"3. c #F5F7FB",
"4. c #F4F7FA",
"5. c #F5F8FB",
"6. c #F6F8FB",
"7. c #F6F9FB",
"8. c #F7F9FB",
"9. c #F6F8FC",
"0. c #F6F9FC",
"q. c #F7F9FC",
"w. c #F7FAFC",
"e. c #F8F9FC",
"r. c #F8FAFC",
"t. c #F9FAFC",
"y. c #F9FBFC",
"u. c #F8FAFD",
"i. c #F9FBFD",
"p. c #FAFBFD",
"a. c #FAFCFD",
"s. c #FBFCFD",
"d. c #FBFCFE",
"f. c #FBFDFE",
"g. c #FCFDFE",
"h. c #FDFDFE",
"j. c #FDFEFE",
"k. c #FDFEFF",
"l. c #FEFEFF",
"z. c #FBFCFE",
/* pixels */
"    X               X                         X     X                 X               X                         X     X               ",
"  X X X X X X X X X X X X X X X X X X X X X X X X X X X X X X X X X X X X X X X X X X X X X X X X X X X X X X X X X X X X X X X X X   ",
"  X X X X X X X X X X X X X X X X X X X X X X X X X X X X X X X X X X X X X X X X X X X X X X X X X X X X X X X X X X X X X X X X X   ",
"  X X X X X X X X X X X X X X X X X X X X X X X X X X X X X X X X X X X X X X X X X X X X X X X X X X X X X X X X X X X X X X X X X   ",
"  X X X X X X X X X X X X X X X X X X X X X X X X X X X X X X X X X X X X X X X X X X X X X X X X X X X X X X X X X X X X X X X X X   ",
"  X X X X X X X X X X X X X X X X X X X X X X X X X X X X X X X X X X X X X X X X X X X X X X X X X X X X X X X X X X X X X X X X X   ",
"  X X X X X X X X X X X X X X X X X X X X X X X X X X X X X X X X X X X X X X X X X X X X X X X X X X X X X X X X X X X X X X X X X   ",
"  X X X X X X X X X X X X X X X X X X X X X X X X X X X X X X X X X X X X X X X X X X X X X X X X X X X X X X X X X X X X X X X X X   ",
"  X X X X X X X X X X X X X X X X X X X X X X X X X X X X X O O O + + O O o . X X X X X X X X X X X X X X X X X X X X X X X X X X X   ",
"  X X X X X X X X X X X X X X X X X X X X X X X X o % u =.2.i.i.j.f.j.i.i.e.,.< O o X X X X X X X X X X X X X X X X X X X X X X X X   ",
"X X X X X X X X X X X X X X X X X X X X X . X o x i.d.j.j.j.f.j.d.j.j.d.d.j.d.j.j.,.M O X X X X X X X X X X X X X X X X X X X X X X X ",
"  X X . X X X X X X X X X X X X X X X X X = :.j.d.d.j.j.i.j.j.j.j.d.j.d.d.d.j.j.j.j.d.j.=.+ X X X X X X X X X X X X X X X X X X X X   ",
"  X X X X X X X X X X X X X X X X X X o ) j.d.j.j.d.j.d.j.j.O.6 = $ $ + + + % = 9 i.d.j.d.j.) @ . X X X X X X X X X X X X X X X X X   ",
"  X X X X X X X X X X X X X X X X . : q.j.d.j.d.d.j.d.j.8 + X X X X X X X X X X X X @ l j.d.j.,.< X X X X X X . X X X X X X X X X X   ",
"  X X X X X X X X X X X X X X X . M j.j.d.j.d.j.j.d.= X X X X X X X X X X X X X X X X X + l d.d.j.M . X X X X X X X X X X X X X X X   ",
"  X X X X X X X X X X X X X X o  .j.d.d.j.d.j.i.6 X X X X X X X X X X X X X X X X X X X X X , i.i.j.[ o X X X X X X X X X X . X X X   ",
"  X X X X X X X X X X X X X O =.d.j.j.d.j.d.t.= X X X X X X X . . O % : ; : & % . . . . X X X + ,.j.f.:.O X X X X X X X X X X X X X   ",
"  X X X X X X X X X X X X . O.d.j.,.M d.d.i.% X X X X X . o : ( i.j.j.j.i.d.j.j.j.:.F ; + X X X $ :.f.j.O.. X X X X X X X X X X X X   ",
"  X X X X X X X X X X X X M d.j.,.; j.j.t.% . X X X X & ( j.j.d.i.j.j.d.j.d.d.j.d.j.j.d.j.( & . X o ,.j.j.M X X X X X X X X X X X X   ",
"  X X X X X X X X X X X 1 j.j.,.% O.d.i.% . X X X $ X.d.j.d.d.j.d.j.d.j.d.j.j.d.j.d.d.j.d.j.j.( o X + ,.d.d.: X X X X X X X X X X X   ",
"  X X X X X X X X X X + 2.j.j.+ u d.j.h . . . o < d.j.j.j.X.J F 2.d.j.d.d.j.d.j.d.j.d.j.d.j.d.j.j.; . $ j.j.i.O X X X X X . X X X X   ",
"  X X X X X X X X X X $.j.j.9 X j.j.i.. . o o h d.j.d.( & O Z j.j.j.d.j.j.d.j.d.j.d.j.d.j.d.j.d.f.j.: . , j.j.O.X X X X X X X X X X   ",
"  X X X X X X X X X + f.j.q.. M j.j.6 X . o ( d.j.=.% X = i.j.d.j.d.j.d.d.j.d.j.d.j.d.j.d.j.d.j.j.j.d.3 . ,.j.d.= . X X X X X X X X   ",
"X X X X X X X X X X =.f.f.$ o j.d.( X . . ( j.i.u X X < j.d.d.j.d.j.d.j.j.d.j.d.j.d.j.d.j.d.j.j.i.j.j.d.8 $ j.j.,.X X X X X X X X X X ",
"  X X X X X X X X + j.j.u X = j.d.5 . . M d.i.; X o M i.j.d.j.d.j.d.i.2.M , , < U q.q.j.j.f.j.i.j.d.j.d.j.% ( d.d.+ X X X X X X X X   ",
"  X X X X X X X X M j.f.= X O.j.j.. . ; j.j.; X o ,.j.j.d.j.d.j.i.< o X X X X X X X o & =.i.f.f.d.j.d.j.d.,.% d.d.x X X X X X X X X   ",
"X X X X X X X X o q.f.i.X X 2.f.J . % t.d.; X X , j.d.j.j.d.d.< o X X X X X X X X X X X X + X.i.j.d.j.d.j.d.1 i.j.i.O X X X X X X X X ",
"  X X X X X X X + f.j.3 X X j.j.& . M j.=.X X $ j.d.j.d.j.d.% X X X X X X X X X X X X X X X X : d.j.d.j.d.j.d.< d.j.& X X X X X X X   ",
"  X X X X X X X < j.d.$ X = j.j.o $ j.j.O X O :.j.i.j.d.i.$ X X X X X X X X X X X X X X X X X X + ) j.j.d.j.d.i.j.d.u X X X X X X X   ",
"  X X X X X X X q.j.i.o X , j.( . M j.: X X % j.j.j.d.i.& X X X X X X X X X X X X X X X X X X X . O X.d.j.d.j.d.d.d.=.X X X X X X X   ",
"  X X X X X X o i.j.i.. X < j.u o j.=.+ X X =.d.d.j.d.= X X X X X X X X . $ $ + X X X X X X X X X X o :.d.j.j.d.j.d.e.o X X X X X X   ",
"X X X X X X X O i.d.u X X 3 j.< : d.Z X X + i.j.j.d.F o X X X X X o 3 ( j.j.j.j.j.X.k X X X X X X X X & j.j.d.j.d.j.i.O X X X X X X   ",
"  X X X X X X + f.f.6 X X k d.: J j.$ X . ; d.j.j.i.+ X X . . . * i.j.j.i.( 9 < u =.j.j.< o X X X X X X x d.d.j.d.j.d.+ . . X X X X   ",
"  X X X X X X @ f.j., X X u j.: ,.,.. X . u j.d.j.i.X X X . . : j.f.i.; o . X X X . % J j.[ X X X X X X O j.j.d.j.d.d.@ . . X X X X   ",
"  X X X X X X @ j.i.= X X 8 j.< j.J X X . M d.j.j.< X X X X @ ,.j.,.@ X X X X X X X X X Z j.u . X X X X . M j.d.d.j.d.@ X X X X X X   ",
"  X X X X X X @ f.j.; X X * j.J j.6 X . . ( j.d.d.% X X X X J d.f.9 X X X X X X X X X X . E j.& X X X X X = d.j.j.d.j.@ X X X X X X   ",
"  X X X X X X + i.j.9 X X $ j.:.j.: . . . 5 d.j.d.+ . . X X O.j.j.8 X X X . X X X X X X X + d.x X X X X X o j.d.f.j.t.+ X X X X X X   ",
"  X X X X X X O i.j.E X . . i.j.d.: . . . : j.d.j.+ . . X X ,.j.d.J o X X o : * X X X X X X 2.j.. X X X . . d.j.j.j.t.O X X X X X X   ",
"  X X X X X . o e.j.i.. X X :.j.d.: X X X @ d.j.j.& X X X X ( j.j.d.3 o X = d.j.= X X X X X O.j.. . . X X . i.d.f.j.t.O X X X X X X   ",
"  X X X X X X X :.d.i.o . . M f.d.6 X X . . i.j.j.8 X X X X , j.d.j.j.) : ; j.d.=.X X X X X 8.t.. . X X X . ( j.j.i.t.X X X X X X X   ",
"  X X X X X X X l j.i.$ X X $ j.d.Z X X X X ; d.j.,.X X X X X ( j.j.j.d.d.d.j.j.: X X X X - j.M X X X X . . i.j.j.d.8 . . . X X X X   ",
"  X X X X X X X * j.j.J X X X ,.d.,.. X X X o 8.j.i.+ X X X X X J i.d.j.j.d.d.u X X X X X X.j.$ X X X X X X j.f.d.j.$ . . . X X X X   ",
"  X X X X X X X O i.j.i.o X X , j.j.+ X X X . $ i.j.F X X X X X X O u t.i.:.& X X . X X : i.M X X X X X X o j.j.j.t.o . X X X X X X   ",
"X X X X X X X X X F i.f.$ X X X ,.j.u X X X X . 6 j.j.< X X X X X X X . X X X X X . . : d.d.$ X X X X X X @ j.j.d.F . . X X X X X X X ",
"  X X X X X X X X + j.j.J X X X : j.f.+ X X X X X : i.j.O.+ X X X X . . X X X X X o 9 d.d.= X X X X X X . & j.j.j.$ X X X X X . X X   ",
"  X X X X X X X X o ,.j.j.& X X X ( j.M X X X X X X $ t.j.,.X.% X X . . X . X & ( ,.j.d.% . X X X X X X . j j.j.4.X X X X X X X X X   ",
"  X X X X X X X X X = d.j.:.. . X $ j.j.: . X X X X X X ; ,.j.j.i.=.X.( X.6.j.j.j.d.< O . X X X X X X X + h.h.h.$ . X X X X X X X X   ",
"  X X X X X X X X X X =.j.j.: X X X ; j.i.; X X X X X X X o = u q.j.d.j.j.j.j.) < $ . X X X X X X X X . 5 h.h.4.. . X X X X X X X X   ",
"  X X X X X X X X X X O i.j.j.$ X X X ; j.j.u X X X X X X X X . . + % & & % O . X X X X X X X X X X X % j.j.,.$ X X X X X X X X X X   ",
"  X X X X X X X X X X X < j.j.i.O X X X ; j.f.E & X X X X X X X . . . X X . . X X X X X X . X X X X + =.d.j.u X X X X X X X X X X X   ",
"  X X X X X X X X X X X . U j.j.:.X X X . = O.f.i.< X X X X X X . . X X X X . . X X X X X X X X X + =.j.d.F X X X X X X X X X X X X   ",
"  X X X X X X X X X X X X . =.i.j.:.+ X X X o l j.j.f.F % X . X . . X X X X . . X X X X X X . . O =.j.d.=.. X X X X X X X X X X X X   ",
"  X X X X X X X X X X X X X O 2.f.j.:.$ . . X . X M X.j.j.j.M ; & + o . . . . . X + $ + . X X $ :.j.d.2.O X X X X X X X X X X X X X   ",
"  X X X X X X X X X X X X X X O :.j.f.j.< . X . X X . = < X.=.,.d.j.j.d.=.Z ( Z 8 $ X . . . : 6.j.j.=.O X X X X X X X X X X X X X X   ",
"  X X X X X X X X X X X X X X X . J j.d.j.,.& . X X X X X X X X X X . . X X X X X X . X $ ,.j.d.j.U . X X X X X X X X X X X X X X X   ",
"  X X X X X X X X X X X X X X X X X 6 i.j.j.j.8.$ X X X X X X X X X X . X X X X X . $ J d.j.d.t.< X X X X X X X X X X X X X . X X X   ",
"X X X X X X X X X X X X X X X X X X X $ :.j.j.j.i.i.5 % O . . . X X . . . . O @ ; t.i.d.j.d.F + X X X X X X X X X X . X X X X X X X X ",
"  X X X X X X X X X X X X X X X X X X X . $ ,.j.j.j.j.d.i.t.( u 1 = ; 1 J ( t.s.j.d.d.j.,.; o X X X X X X X X X X X X X X X X X X X   ",
"  X X X X X X X X X X X X X X X X X X X . X X $ F t.d.j.j.j.j.d.d.j.d.d.j.j.j.j.d.i.F @ o . . X X X X X X X . X X X X X X X X X X X   ",
"X X X X X X X X X X X X X X X X X X X X X X X X . O $ 1 t.i.d.d.j.d.j.d.i.i.,.k = + . X . . X X X X X X X X X X X X X X X X X X X X X ",
"  X X X X X X X X X X X X X X X X X X X X X X X . X X X . + O $ $ % $ @ + o . X X X X X X X X X X X X . X X X X X X X X X X X X X X   ",
"  X X X X X X X X X X X X X X X X X X X X X X X X X X X X X . . . X . X . X X X X X X X X X X X X X X X X X X X X X X X X X X X X X   ",
"  X X X X X X X X X X X X X X X X X X . X X X X X X X X X X X . . o X X X X X X X . X X X X X X X X X X X X X X X X X X X X X X X X   ",
"  X X X X . X X X X X X X X X X X X X X X X X X X X X X X . X . . . X X X X X X X X X X X X X X X X X X X X X X X X X . X X X X X X   ",
"X X X X X X X X X X X X X X X X X X X X X X X X X X X X X X X X X X X X X X X X X X X X X X X X X X X X X X X X X X X X X X X X X X   ",
"  X X X X X X X X X X X X X X X X X X X X X X X X X X X X X X X X X X X X X X X X X X X X X X X X X X X X X X X X X X X X X X X X X   ",
"                    X             X           X     X                                 X             X           X     X               "
};
